<svg xmlns="http://www.w3.org/2000/svg" xmlns:xlink="http://www.w3.org/1999/xlink" xmlns:lucid="lucid" width="701" height="169"><g transform="translate(1320.5 240.5)" lucid:page-tab-id="0_0"><path d="M-1320-235a5 5 0 0 1 5-5h270a5 5 0 0 1 5 5v158a5 5 0 0 1-5 5h-270a5 5 0 0 1-5-5z" fill="#fff"/><path d="M-1320-200v-35a5 5 0 0 1 5-5h270a5 5 0 0 1 5 5v35" fill="#dedeff"/><path d="M-1320-235a5 5 0 0 1 5-5h270a5 5 0 0 1 5 5v158a5 5 0 0 1-5 5h-270a5 5 0 0 1-5-5zM-1320-200h280M-1260-200v128" stroke="#282c33" fill="none"/><use xlink:href="#a" transform="matrix(1,0,0,1,-1310,-240) translate(104.55 23.6)"/><use xlink:href="#b" transform="matrix(1,0,0,1,-1315,-197.5) translate(13 17.1)"/><use xlink:href="#c" transform="matrix(1,0,0,1,-1255,-197.5) translate(0 17.1)"/><use xlink:href="#d" transform="matrix(1,0,0,1,-1255,-165.5) translate(0 17.1)"/><use xlink:href="#e" transform="matrix(1,0,0,1,-1255,-133.5) translate(0 17.1)"/><use xlink:href="#f" transform="matrix(1,0,0,1,-1255,-101.5) translate(0 17.1)"/><path d="M-900-235a5 5 0 0 1 5-5h270a5 5 0 0 1 5 5v158a5 5 0 0 1-5 5h-270a5 5 0 0 1-5-5z" fill="#fff"/><path d="M-900-200v-35a5 5 0 0 1 5-5h270a5 5 0 0 1 5 5v35" fill="#dedeff"/><path d="M-900-235a5 5 0 0 1 5-5h270a5 5 0 0 1 5 5v158a5 5 0 0 1-5 5h-270a5 5 0 0 1-5-5zM-900-200h280M-840-200v128" stroke="#282c33" fill="none"/><use xlink:href="#g" transform="matrix(1,0,0,1,-890,-240) translate(100.57499999999999 23.6)"/><use xlink:href="#b" transform="matrix(1,0,0,1,-895,-197.5) translate(13 17.1)"/><use xlink:href="#c" transform="matrix(1,0,0,1,-835,-197.5) translate(0 17.1)"/><use xlink:href="#h" transform="matrix(1,0,0,1,-895,-165.5) translate(13.524999999999999 17.1)"/><use xlink:href="#i" transform="matrix(1,0,0,1,-835,-165.5) translate(0 17.1)"/><use xlink:href="#j" transform="matrix(1,0,0,1,-835,-133.5) translate(0 17.1)"/><use xlink:href="#f" transform="matrix(1,0,0,1,-835,-101.5) translate(0 17.1)"/><path d="M-1019.5-152h79M-1039.5-152h20m-10 10v-20m10 20v-20" stroke="#3a414a" fill="none"/><path d="M-900.72-152h-20m20-10l-20 10m20 10l-20-10m0 0c0 5.54-4.48 10-10 10-5.53 0-10-4.46-10-10 0-5.5 4.47-10 10-10 5.52 0 10 4.5 10 10z" stroke="#3a414a" fill="#fff"/><defs><path fill="#333" d="M205 0l-28-72H64L36 0H1l101-248h38L239 0h-34zm-38-99l-47-123c-12 45-31 82-46 123h93" id="k"/><path fill="#333" d="M117-194c89-4 53 116 60 194h-32v-121c0-31-8-49-39-48C34-167 62-67 57 0H25l-1-190h30c1 10-1 24 2 32 11-22 29-35 61-36" id="l"/><path fill="#333" d="M24-231v-30h32v30H24zM24 0v-190h32V0H24" id="m"/><path fill="#333" d="M210-169c-67 3-38 105-44 169h-31v-121c0-29-5-50-35-48C34-165 62-65 56 0H25l-1-190h30c1 10-1 24 2 32 10-44 99-50 107 0 11-21 27-35 58-36 85-2 47 119 55 194h-31v-121c0-29-5-49-35-48" id="n"/><path fill="#333" d="M100-194c63 0 86 42 84 106H49c0 40 14 67 53 68 26 1 43-12 49-29l28 8c-11 28-37 45-77 45C44 4 14-33 15-96c1-61 26-98 85-98zm52 81c6-60-76-77-97-28-3 7-6 17-6 28h103" id="o"/><g id="a"><use transform="matrix(0.05,0,0,0.05,0,0)" xlink:href="#k"/><use transform="matrix(0.05,0,0,0.05,12,0)" xlink:href="#l"/><use transform="matrix(0.05,0,0,0.05,22,0)" xlink:href="#m"/><use transform="matrix(0.05,0,0,0.05,25.950000000000003,0)" xlink:href="#n"/><use transform="matrix(0.05,0,0,0.05,40.9,0)" xlink:href="#o"/></g><path d="M30-248c87 1 191-15 191 75 0 78-77 80-158 76V0H30v-248zm33 125c57 0 124 11 124-50 0-59-68-47-124-48v98" id="p"/><path d="M194 0L95-120 63-95V0H30v-248h33v124l119-124h40L117-140 236 0h-42" id="q"/><g id="b"><use transform="matrix(0.05,0,0,0.05,0,0)" xlink:href="#p"/><use transform="matrix(0.05,0,0,0.05,12,0)" xlink:href="#q"/></g><path fill="#333" d="M85-194c31 0 48 13 60 33l-1-100h32l1 261h-30c-2-10 0-23-3-31C134-8 116 4 85 4 32 4 16-35 15-94c0-66 23-100 70-100zm9 24c-40 0-46 34-46 75 0 40 6 74 45 74 42 0 51-32 51-76 0-42-9-74-50-73" id="r"/><g id="c"><use transform="matrix(0.05,0,0,0.05,0,0)" xlink:href="#m"/><use transform="matrix(0.05,0,0,0.05,3.95,0)" xlink:href="#r"/></g><path fill="#333" d="M59-47c-2 24 18 29 38 22v24C64 9 27 4 27-40v-127H5v-23h24l9-43h21v43h35v23H59v120" id="s"/><path fill="#333" d="M24 0v-261h32V0H24" id="t"/><path fill="#333" d="M33 0v-38h34V0H33" id="u"/><path fill="#333" d="M177-190C167-65 218 103 67 71c-23-6-38-20-44-43l32-5c15 47 100 32 89-28v-30C133-14 115 1 83 1 29 1 15-40 15-95c0-56 16-97 71-98 29-1 48 16 59 35 1-10 0-23 2-32h30zM94-22c36 0 50-32 50-73 0-42-14-75-50-75-39 0-46 34-46 75s6 73 46 73" id="v"/><path fill="#333" d="M135-143c-3-34-86-38-87 0 15 53 115 12 119 90S17 21 10-45l28-5c4 36 97 45 98 0-10-56-113-15-118-90-4-57 82-63 122-42 12 7 21 19 24 35" id="w"/><path fill="#333" d="M106-169C34-169 62-67 57 0H25v-261h32l-1 103c12-21 28-36 61-36 89 0 53 116 60 194h-32v-121c2-32-8-49-39-48" id="x"/><g id="d"><use transform="matrix(0.05,0,0,0.05,0,0)" xlink:href="#s"/><use transform="matrix(0.05,0,0,0.05,5,0)" xlink:href="#m"/><use transform="matrix(0.05,0,0,0.05,8.95,0)" xlink:href="#s"/><use transform="matrix(0.05,0,0,0.05,13.949999999999998,0)" xlink:href="#t"/><use transform="matrix(0.05,0,0,0.05,17.9,0)" xlink:href="#o"/><use transform="matrix(0.05,0,0,0.05,27.899999999999995,0)" xlink:href="#u"/><use transform="matrix(0.05,0,0,0.05,32.9,0)" xlink:href="#o"/><use transform="matrix(0.05,0,0,0.05,42.9,0)" xlink:href="#l"/><use transform="matrix(0.05,0,0,0.05,52.900000000000006,0)" xlink:href="#v"/><use transform="matrix(0.05,0,0,0.05,62.900000000000006,0)" xlink:href="#t"/><use transform="matrix(0.05,0,0,0.05,66.85,0)" xlink:href="#m"/><use transform="matrix(0.05,0,0,0.05,70.8,0)" xlink:href="#w"/><use transform="matrix(0.05,0,0,0.05,79.8,0)" xlink:href="#x"/></g><path fill="#333" d="M141-36C126-15 110 5 73 4 37 3 15-17 15-53c-1-64 63-63 125-63 3-35-9-54-41-54-24 1-41 7-42 31l-33-3c5-37 33-52 76-52 45 0 72 20 72 64v82c-1 20 7 32 28 27v20c-31 9-61-2-59-35zM48-53c0 20 12 33 32 33 41-3 63-29 60-74-43 2-92-5-92 41" id="y"/><path fill="#333" d="M108 0H70L1-190h34L89-25l56-165h34" id="z"/><g id="e"><use transform="matrix(0.05,0,0,0.05,0,0)" xlink:href="#s"/><use transform="matrix(0.05,0,0,0.05,5,0)" xlink:href="#m"/><use transform="matrix(0.05,0,0,0.05,8.95,0)" xlink:href="#s"/><use transform="matrix(0.05,0,0,0.05,13.949999999999998,0)" xlink:href="#t"/><use transform="matrix(0.05,0,0,0.05,17.9,0)" xlink:href="#o"/><use transform="matrix(0.05,0,0,0.05,27.899999999999995,0)" xlink:href="#u"/><use transform="matrix(0.05,0,0,0.05,32.9,0)" xlink:href="#l"/><use transform="matrix(0.05,0,0,0.05,42.9,0)" xlink:href="#y"/><use transform="matrix(0.05,0,0,0.05,52.900000000000006,0)" xlink:href="#s"/><use transform="matrix(0.05,0,0,0.05,57.900000000000006,0)" xlink:href="#m"/><use transform="matrix(0.05,0,0,0.05,61.85,0)" xlink:href="#z"/><use transform="matrix(0.05,0,0,0.05,70.85,0)" xlink:href="#o"/></g><g id="f"><use transform="matrix(0.05,0,0,0.05,0,0)" xlink:href="#u"/><use transform="matrix(0.05,0,0,0.05,5,0)" xlink:href="#u"/><use transform="matrix(0.05,0,0,0.05,10,0)" xlink:href="#u"/></g><path fill="#333" d="M233-177c-1 41-23 64-60 70L243 0h-38l-65-103H63V0H30v-248c88 3 205-21 203 71zM63-129c60-2 137 13 137-47 0-61-80-42-137-45v92" id="A"/><path fill="#333" d="M206 0h-36l-40-164L89 0H53L-1-190h32L70-26l43-164h34l41 164 42-164h31" id="B"/><g id="g"><use transform="matrix(0.05,0,0,0.05,0,0)" xlink:href="#A"/><use transform="matrix(0.05,0,0,0.05,12.950000000000001,0)" xlink:href="#o"/><use transform="matrix(0.05,0,0,0.05,22.950000000000003,0)" xlink:href="#z"/><use transform="matrix(0.05,0,0,0.05,31.950000000000003,0)" xlink:href="#m"/><use transform="matrix(0.05,0,0,0.05,35.900000000000006,0)" xlink:href="#o"/><use transform="matrix(0.05,0,0,0.05,45.900000000000006,0)" xlink:href="#B"/></g><path d="M63-220v92h138v28H63V0H30v-248h175v28H63" id="C"/><g id="h"><use transform="matrix(0.05,0,0,0.05,0,0)" xlink:href="#C"/><use transform="matrix(0.05,0,0,0.05,10.950000000000001,0)" xlink:href="#q"/></g><path fill="#333" d="M33 0v-248h34V0H33" id="D"/><path fill="#333" d="M30-248c118-7 216 8 213 122C240-48 200 0 122 0H30v-248zM63-27c89 8 146-16 146-99s-60-101-146-95v194" id="E"/><g id="i"><use transform="matrix(0.05,0,0,0.05,0,0)" xlink:href="#n"/><use transform="matrix(0.05,0,0,0.05,14.950000000000001,0)" xlink:href="#o"/><use transform="matrix(0.05,0,0,0.05,24.950000000000003,0)" xlink:href="#r"/><use transform="matrix(0.05,0,0,0.05,34.95,0)" xlink:href="#m"/><use transform="matrix(0.05,0,0,0.05,38.900000000000006,0)" xlink:href="#y"/><use transform="matrix(0.05,0,0,0.05,48.900000000000006,0)" xlink:href="#D"/><use transform="matrix(0.05,0,0,0.05,53.900000000000006,0)" xlink:href="#E"/></g><path fill="#333" d="M114-163C36-179 61-72 57 0H25l-1-190h30c1 12-1 29 2 39 6-27 23-49 58-41v29" id="F"/><g id="j"><use transform="matrix(0.05,0,0,0.05,0,0)" xlink:href="#F"/><use transform="matrix(0.05,0,0,0.05,5.95,0)" xlink:href="#y"/><use transform="matrix(0.05,0,0,0.05,15.949999999999998,0)" xlink:href="#s"/><use transform="matrix(0.05,0,0,0.05,20.95,0)" xlink:href="#m"/><use transform="matrix(0.05,0,0,0.05,24.9,0)" xlink:href="#l"/><use transform="matrix(0.05,0,0,0.05,34.9,0)" xlink:href="#v"/></g></defs></g></svg>